<svg width="24" height="24" viewBox="0 0 24 24" fill="none" xmlns="http://www.w3.org/2000/svg">
    <path fill="#fff" d="M0 0h24v24H0z"/>
    <path fill-rule="evenodd" clip-rule="evenodd" d="M7.965 7.887a3.927 3.927 0 0 1 3.929-3.925c2.17 0 3.93 1.757 3.93 3.925a3.927 3.927 0 0 1-3.93 3.924 3.927 3.927 0 0 1-3.93-3.924zM11.894 2A5.89 5.89 0 0 0 6 7.887a5.89 5.89 0 0 0 4.884 5.8v7.332a.982.982 0 0 0 1.964 0v-7.323a5.89 5.89 0 0 0 4.94-5.81A5.89 5.89 0 0 0 11.894 2z" fill="#4253FF"/>
    <path fill-rule="evenodd" clip-rule="evenodd" d="M12.602 7.385a1.347 1.347 0 0 0-.629-.118l-.047.003-.047-.002a1.508 1.508 0 0 0-1.217.536.983.983 0 0 1-1.384.121.98.98 0 0 1-.121-1.382 3.47 3.47 0 0 1 2.757-1.237 3.314 3.314 0 0 1 2.736 1.262.98.98 0 0 1-.166 1.377.983.983 0 0 1-1.379-.166 1.344 1.344 0 0 0-.503-.394z" fill="#4253FF"/>
</svg>
